<svg width="63" height="64" viewBox="0 0 63 64" fill="none" xmlns="http://www.w3.org/2000/svg">
<path d="M0 10C0 4.47715 4.47715 0 10 0H53C58.5228 0 63 4.47715 63 10V54C63 59.5228 58.5228 64 53 64H10C4.47715 64 0 59.5228 0 54V10Z" fill="#314E52"/>
<path d="M18.32 39.3603H20.12V23.1603H18.32V17.2563H34.844C37.94 17.2563 40.304 17.8923 41.936 19.1643C43.568 20.4363 44.384 22.5003 44.384 25.3563C44.384 26.9643 44.06 28.3563 43.412 29.5323C42.764 30.7083 41.84 31.5243 40.64 31.9803L40.676 32.3403C42.98 32.7003 44.132 34.1163 44.132 36.5883V39.3603H45.824V45.2643H34.412V36.8043C34.412 35.8683 34.268 35.1603 33.98 34.6803C33.716 34.2003 33.284 33.8763 32.684 33.7083C32.108 33.5403 31.28 33.4563 30.2 33.4563V39.3603H32.576V45.2643H18.32V39.3603ZM32.144 29.0643C32.84 29.0643 33.356 28.8843 33.692 28.5243C34.052 28.1403 34.232 27.5523 34.232 26.7603V25.4643C34.232 24.6723 34.052 24.0963 33.692 23.7363C33.356 23.3523 32.84 23.1603 32.144 23.1603H30.2V29.0643H32.144Z" fill="white"/>
</svg>
